<svg aria-roledescription="stateDiagram" role="img" style="max-width: 357.1816px;" viewBox="0 0 357.1816 766.6" width="100%" xmlns="http://www.w3.org/2000/svg"><path class="state-transition" d="M124.2096 22 L124.2096 26.1667 C124.2096 30.3333 124.2096 38.6667 124.2096 47 C124.2096 55.3333 124.2096 63.6667 124.2096 67.8333 L124.2096 72" data-role="edge" fill="none" id="state-transition-0" stroke="#333333" stroke-linecap="butt" stroke-linejoin="miter" stroke-width="1"></path><polygon class="state-transition-arrow" fill="#333333" id="state-transition-arrow-1" points="124.2096,72 118.2096,62 124.2096,67 130.2096,62" stroke="#333333" stroke-linecap="butt" stroke-linejoin="miter" stroke-width="1"></polygon><path aria-label="submit" class="state-transition" d="M124.2096 112 L124.2096 117.7667 C124.2096 123.5333 124.2096 135.0667 124.2096 146.6 C124.2096 158.1333 124.2096 169.6667 124.2096 175.4333 L124.2096 181.2" data-role="edge" fill="none" id="state-transition-2" stroke="#333333" stroke-linecap="butt" stroke-linejoin="miter" stroke-width="1"></path><polygon class="state-transition-arrow" fill="#333333" id="state-transition-arrow-3" points="124.2096,181.2 118.2096,171.2 124.2096,176.2 130.2096,171.2" stroke="#333333" stroke-linecap="butt" stroke-linejoin="miter" stroke-width="1"></polygon><rect class="state-transition-label-background" fill="#e8e8e8" fill-opacity="0.8" height="19.2" id="graph-label-background-4" width="57.6" x="95.4096" y="137"></rect><text class="state-transition-label" data-role="label" dominant-baseline="central" fill="#333333" font-family="&quot;trebuchet ms&quot;, verdana, arial, sans-serif" font-size="16" font-weight="400" id="label-5" text-anchor="middle" x="124.2096" y="146.6">submit</text><path aria-label="success" class="state-transition" d="M50.1016 500.2 L47.6909 505.9667 C45.2802 511.7333 40.4589 523.2667 38.0482 534.8 C35.6375 546.3333 35.6375 557.8667 35.6375 563.6333 L35.6375 569.4" data-role="edge" fill="none" id="state-transition-6" stroke="#333333" stroke-linecap="butt" stroke-linejoin="miter" stroke-width="1"></path><polygon class="state-transition-arrow" fill="#333333" id="state-transition-arrow-7" points="35.6375,569.4 31.8104,558.384 36.6605,564.5058 43.5565,560.8391" stroke="#333333" stroke-linecap="butt" stroke-linejoin="miter" stroke-width="1"></polygon><rect class="state-transition-label-background" fill="#e8e8e8" fill-opacity="0.8" height="19.2" id="graph-label-background-8" width="67.2" x="2.0375" y="525.2"></rect><text class="state-transition-label" data-role="label" dominant-baseline="central" fill="#333333" font-family="&quot;trebuchet ms&quot;, verdana, arial, sans-serif" font-size="16" font-weight="400" id="label-9" text-anchor="middle" x="35.6375" y="534.8">success</text><path aria-label="error" class="state-transition" d="M198.3176 500.2 L200.7283 505.9667 C203.1389 511.7333 207.9603 523.2667 210.371 534.8 C212.7816 546.3333 212.7816 557.8667 212.7816 563.6333 L212.7816 569.4" data-role="edge" fill="none" id="state-transition-10" stroke="#333333" stroke-linecap="butt" stroke-linejoin="miter" stroke-width="1"></path><polygon class="state-transition-arrow" fill="#333333" id="state-transition-arrow-11" points="212.7816,569.4 204.8626,560.8391 211.7587,564.5058 216.6088,558.384" stroke="#333333" stroke-linecap="butt" stroke-linejoin="miter" stroke-width="1"></polygon><rect class="state-transition-label-background" fill="#e8e8e8" fill-opacity="0.8" height="19.2" id="graph-label-background-12" width="48" x="188.7816" y="525.2"></rect><text class="state-transition-label" data-role="label" dominant-baseline="central" fill="#333333" font-family="&quot;trebuchet ms&quot;, verdana, arial, sans-serif" font-size="16" font-weight="400" id="label-13" text-anchor="middle" x="212.7816" y="534.8">error</text><path class="state-transition" d="M35.6375 609.4 L35.6375 613.5667 C35.6375 617.7333 35.6375 626.0667 35.6375 634.4 C35.6375 642.7333 35.6375 651.0667 35.6375 662.3322 C35.6375 673.5978 35.6375 687.7956 35.6375 694.8945 L35.6375 701.9934" data-role="edge" fill="none" id="state-transition-14" stroke="#333333" stroke-linecap="butt" stroke-linejoin="miter" stroke-width="1"></path><polygon class="state-transition-arrow" fill="#333333" id="state-transition-arrow-15" points="35.6375,701.9934 29.6375,691.9934 35.6375,696.9934 41.6375,691.9934" stroke="#333333" stroke-linecap="butt" stroke-linejoin="miter" stroke-width="1"></polygon><circle class="state-start" cx="124.2096" cy="15" data-role="node" fill="#333333" id="state-start-16" r="7" stroke="#333333" stroke-linecap="butt" stroke-linejoin="miter" stroke-width="1"></circle><rect aria-label="Idle" class="state-node" data-role="node" fill="#ececff" height="40" id="state-node-17" rx="5" ry="5" stroke="#9370db" stroke-linecap="butt" stroke-linejoin="miter" stroke-width="1" width="54.4" x="97.0096" y="72"></rect><text class="state-title" data-role="label" dominant-baseline="central" fill="#131300" font-family="&quot;trebuchet ms&quot;, verdana, arial, sans-serif" font-size="16" font-weight="400" id="label-18" text-anchor="middle" x="124.2096" y="92">Idle</text><rect aria-label="Processing" class="state-node state-composite" data-role="node" fill="#ececff" height="319" id="state-node-19" rx="5" ry="5" stroke="#9370db" stroke-linecap="butt" stroke-linejoin="miter" stroke-width="1" width="182" x="33.2096" y="181.2"></rect><text class="state-title" data-role="label" dominant-baseline="central" fill="#131300" font-family="&quot;trebuchet ms&quot;, verdana, arial, sans-serif" font-size="16" font-weight="400" id="label-20" text-anchor="middle" x="124.2096" y="194.2">Processing</text><rect class="state-composite-inner" fill="#ffffff" height="289" id="state-composite-inner-21" stroke="#9370db" stroke-linecap="butt" stroke-linejoin="miter" stroke-width="1" width="182" x="33.2096" y="207.2"></rect><g class="state-composite-content" data-role="group" id="state-composite-content-31" transform="translate(68.2096 218.7)"><path class="state-transition" d="M56 14 L56 20.25 C56 26.5 56 39 56 51.5 C56 64 56 76.5 56 82.75 L56 89" data-role="edge" fill="none" id="state-transition-22" stroke="#333333" stroke-linecap="butt" stroke-linejoin="miter" stroke-width="1"></path><polygon class="state-transition-arrow" fill="#333333" id="state-transition-arrow-23" points="56,89 50,79 56,84 62,79" stroke="#333333" stroke-linecap="butt" stroke-linejoin="miter" stroke-width="1"></polygon><path class="state-transition" d="M56 129 L56 135.25 C56 141.5 56 154 56 166.5 C56 179 56 191.5 56 197.75 L56 204" data-role="edge" fill="none" id="state-transition-24" stroke="#333333" stroke-linecap="butt" stroke-linejoin="miter" stroke-width="1"></path><polygon class="state-transition-arrow" fill="#333333" id="state-transition-arrow-25" points="56,204 50,194 56,199 62,194" stroke="#333333" stroke-linecap="butt" stroke-linejoin="miter" stroke-width="1"></polygon><circle class="state-start" cx="56" cy="7" data-role="node" fill="#333333" id="state-start-26" r="7" stroke="#333333" stroke-linecap="butt" stroke-linejoin="miter" stroke-width="1"></circle><rect aria-label="Validating" class="state-node" data-role="node" fill="#ececff" height="40" id="state-node-27" rx="5" ry="5" stroke="#9370db" stroke-linecap="butt" stroke-linejoin="miter" stroke-width="1" width="112" x="0" y="89"></rect><text class="state-title" data-role="label" dominant-baseline="central" fill="#131300" font-family="&quot;trebuchet ms&quot;, verdana, arial, sans-serif" font-size="16" font-weight="400" id="label-28" text-anchor="middle" x="56" y="109">Validating</text><rect aria-label="Complete" class="state-node" data-role="node" fill="#ececff" height="40" id="state-node-29" rx="5" ry="5" stroke="#9370db" stroke-linecap="butt" stroke-linejoin="miter" stroke-width="1" width="92.8" x="9.6" y="204"></rect><text class="state-title" data-role="label" dominant-baseline="central" fill="#131300" font-family="&quot;trebuchet ms&quot;, verdana, arial, sans-serif" font-size="16" font-weight="400" id="label-30" text-anchor="middle" x="56" y="224">Complete</text></g><rect aria-label="Done" class="state-node" data-role="node" fill="#ececff" height="40" id="state-node-32" rx="5" ry="5" stroke="#9370db" stroke-linecap="butt" stroke-linejoin="miter" stroke-width="1" width="54.4" x="8.4375" y="569.4"></rect><text class="state-title" data-role="label" dominant-baseline="central" fill="#131300" font-family="&quot;trebuchet ms&quot;, verdana, arial, sans-serif" font-size="16" font-weight="400" id="label-33" text-anchor="middle" x="35.6375" y="589.4">Done</text><rect aria-label="Failed" class="state-node" data-role="node" fill="#ececff" height="40" id="state-node-34" rx="5" ry="5" stroke="#9370db" stroke-linecap="butt" stroke-linejoin="miter" stroke-width="1" width="73.6" x="175.9816" y="569.4"></rect><text class="state-title" data-role="label" dominant-baseline="central" fill="#131300" font-family="&quot;trebuchet ms&quot;, verdana, arial, sans-serif" font-size="16" font-weight="400" id="label-35" text-anchor="middle" x="212.7816" y="589.4">Failed</text><circle class="state-end" cx="35.6375" cy="709" data-role="node" fill="#ececff" id="state-end-36" r="7" stroke="#333333" stroke-linecap="butt" stroke-linejoin="miter" stroke-width="2"></circle><circle class="state-end-inner" cx="35.6375" cy="709" fill="#9370db" id="state-end-inner-37" r="2.5" stroke="#9370db" stroke-linecap="butt" stroke-linejoin="miter" stroke-width="2"></circle><rect class="state-note-layout" fill="none" height="99.2" id="state-note-layout-38" width="272.8" x="76.3816" y="659.4"></rect><path class="state-transition state-note-edge" d="M212.7816 609.4 L212.7816 615.65 C212.7816 621.9 212.7816 634.4 212.7816 646.9 C212.7816 659.4 212.7816 671.9 212.7816 678.15 L212.7816 684.4" data-role="edge" fill="none" id="state-note-edge-39" stroke="#333333" stroke-dasharray="5 5" stroke-linecap="butt" stroke-linejoin="miter" stroke-width="1"></path><rect aria-label="Retry is available" class="state-note" data-role="annotation" fill="#fff5ad" height="49.2" id="state-note-40" stroke="#aaaa33" stroke-linecap="butt" stroke-linejoin="miter" stroke-width="1" width="202.8" x="111.3816" y="684.4"></rect><text class="state-note-text" data-role="label" dominant-baseline="central" fill="#000000" font-family="&quot;trebuchet ms&quot;, verdana, arial, sans-serif" font-size="16" font-weight="400" id="label-41" text-anchor="middle" x="212.7816" y="709">Retry is available</text></svg>
